<?xml version="1.0" encoding="UTF-8" standalone="no"?>
<!DOCTYPE svg PUBLIC "-//W3C//DTD SVG 1.1//EN"
 "http://www.w3.org/Graphics/SVG/1.1/DTD/svg11.dtd">
<!-- Generated by graphviz version 7.1.0 (20230122.1345)
 -->
<!-- Pages: 1 -->
<svg width="273pt" height="363pt"
 viewBox="0.00 0.00 272.69 362.86" xmlns="http://www.w3.org/2000/svg" xmlns:xlink="http://www.w3.org/1999/xlink">
<g id="graph0" class="graph" transform="scale(1 1) rotate(0) translate(4 358.86)">
<polygon fill="white" stroke="none" points="-4,4 -4,-358.86 268.69,-358.86 268.69,4 -4,4"/>
<g id="clust1" class="cluster">
<title>cluster4</title>
<path fill="none" stroke="black" d="M168.69,-232.91C168.69,-232.91 244.69,-232.91 244.69,-232.91 250.69,-232.91 256.69,-238.91 256.69,-244.91 256.69,-244.91 256.69,-334.86 256.69,-334.86 256.69,-340.86 250.69,-346.86 244.69,-346.86 244.69,-346.86 168.69,-346.86 168.69,-346.86 162.69,-346.86 156.69,-340.86 156.69,-334.86 156.69,-334.86 156.69,-244.91 156.69,-244.91 156.69,-238.91 162.69,-232.91 168.69,-232.91"/>
<text text-anchor="middle" x="245.19" y="-240.71" font-family="Times,serif" font-size="14.00">4</text>
</g>
<g id="clust2" class="cluster">
<title>cluster8</title>
<path fill="none" stroke="black" d="M138.69,-8C138.69,-8 222.69,-8 222.69,-8 228.69,-8 234.69,-14 234.69,-20 234.69,-20 234.69,-209.93 234.69,-209.93 234.69,-215.93 228.69,-221.93 222.69,-221.93 222.69,-221.93 138.69,-221.93 138.69,-221.93 132.69,-221.93 126.69,-215.93 126.69,-209.93 126.69,-209.93 126.69,-20 126.69,-20 126.69,-14 132.69,-8 138.69,-8"/>
<text text-anchor="middle" x="223.19" y="-15.8" font-family="Times,serif" font-size="14.00">8</text>
</g>
<!-- σ -->
<g id="node1" class="node">
<title>σ</title>
<ellipse fill="none" stroke="black" cx="58.69" cy="-187.43" rx="58.88" ry="37.45"/>
<text text-anchor="middle" x="58.69" y="-198.73" font-family="Times,serif" font-size="14.00">σ</text>
<text text-anchor="middle" x="58.69" y="-183.73" font-family="Times,serif" font-size="14.00">~</text>
<text text-anchor="middle" x="58.69" y="-168.73" font-family="Times,serif" font-size="14.00">HalfNormal</text>
</g>
<!-- S -->
<g id="node4" class="node">
<title>S</title>
<ellipse fill="lightgrey" stroke="black" cx="178.69" cy="-76.48" rx="41.94" ry="37.45"/>
<text text-anchor="middle" x="178.69" y="-87.78" font-family="Times,serif" font-size="14.00">S</text>
<text text-anchor="middle" x="178.69" y="-72.78" font-family="Times,serif" font-size="14.00">~</text>
<text text-anchor="middle" x="178.69" y="-57.78" font-family="Times,serif" font-size="14.00">Normal</text>
</g>
<!-- σ&#45;&gt;S -->
<g id="edge3" class="edge">
<title>σ&#45;&gt;S</title>
<path fill="none" stroke="black" d="M92.12,-156.08C107.33,-142.27 125.4,-125.86 141.09,-111.62"/>
<polygon fill="black" stroke="black" points="143.35,-114.29 148.4,-104.98 138.64,-109.11 143.35,-114.29"/>
</g>
<!-- α -->
<g id="node2" class="node">
<title>α</title>
<ellipse fill="none" stroke="black" cx="105.69" cy="-301.38" rx="41.94" ry="37.45"/>
<text text-anchor="middle" x="105.69" y="-312.68" font-family="Times,serif" font-size="14.00">α</text>
<text text-anchor="middle" x="105.69" y="-297.68" font-family="Times,serif" font-size="14.00">~</text>
<text text-anchor="middle" x="105.69" y="-282.68" font-family="Times,serif" font-size="14.00">Normal</text>
</g>
<!-- μ -->
<g id="node5" class="node">
<title>μ</title>
<polygon fill="none" stroke="black" points="226.19,-213.93 135.19,-213.93 135.19,-160.93 226.19,-160.93 226.19,-213.93"/>
<text text-anchor="middle" x="180.69" y="-198.73" font-family="Times,serif" font-size="14.00">μ</text>
<text text-anchor="middle" x="180.69" y="-183.73" font-family="Times,serif" font-size="14.00">~</text>
<text text-anchor="middle" x="180.69" y="-168.73" font-family="Times,serif" font-size="14.00">Deterministic</text>
</g>
<!-- α&#45;&gt;μ -->
<g id="edge1" class="edge">
<title>α&#45;&gt;μ</title>
<path fill="none" stroke="black" d="M126.98,-268.6C136.34,-254.63 147.37,-238.17 156.99,-223.81"/>
<polygon fill="black" stroke="black" points="159.89,-225.77 162.54,-215.52 154.07,-221.88 159.89,-225.77"/>
</g>
<!-- w -->
<g id="node3" class="node">
<title>w</title>
<ellipse fill="none" stroke="black" cx="206.69" cy="-301.38" rx="41.94" ry="37.45"/>
<text text-anchor="middle" x="206.69" y="-312.68" font-family="Times,serif" font-size="14.00">w</text>
<text text-anchor="middle" x="206.69" y="-297.68" font-family="Times,serif" font-size="14.00">~</text>
<text text-anchor="middle" x="206.69" y="-282.68" font-family="Times,serif" font-size="14.00">Normal</text>
</g>
<!-- w&#45;&gt;μ -->
<g id="edge2" class="edge">
<title>w&#45;&gt;μ</title>
<path fill="none" stroke="black" d="M198.32,-264.34C195.41,-251.82 192.14,-237.75 189.22,-225.17"/>
<polygon fill="black" stroke="black" points="192.67,-224.54 187,-215.59 185.85,-226.12 192.67,-224.54"/>
</g>
<!-- μ&#45;&gt;S -->
<g id="edge4" class="edge">
<title>μ&#45;&gt;S</title>
<path fill="none" stroke="black" d="M180.22,-160.61C180.02,-150.12 179.79,-137.64 179.57,-125.59"/>
<polygon fill="black" stroke="black" points="183.08,-125.69 179.39,-115.76 176.08,-125.82 183.08,-125.69"/>
</g>
</g>
</svg>
