<?xml version="1.0" encoding="UTF-8" standalone="no"?>
<!DOCTYPE svg PUBLIC "-//W3C//DTD SVG 1.1//EN"
 "http://www.w3.org/Graphics/SVG/1.1/DTD/svg11.dtd">
<!-- Generated by graphviz version 7.1.0 (20230122.1345)
 -->
<!-- Pages: 1 -->
<svg width="280pt" height="363pt"
 viewBox="0.00 0.00 280.41 362.86" xmlns="http://www.w3.org/2000/svg" xmlns:xlink="http://www.w3.org/1999/xlink">
<g id="graph0" class="graph" transform="scale(1 1) rotate(0) translate(4 358.86)">
<polygon fill="white" stroke="none" points="-4,4 -4,-358.86 276.41,-358.86 276.41,4 -4,4"/>
<g id="clust1" class="cluster">
<title>cluster4</title>
<path fill="none" stroke="black" d="M104.72,-232.91C104.72,-232.91 180.72,-232.91 180.72,-232.91 186.72,-232.91 192.72,-238.91 192.72,-244.91 192.72,-244.91 192.72,-334.86 192.72,-334.86 192.72,-340.86 186.72,-346.86 180.72,-346.86 180.72,-346.86 104.72,-346.86 104.72,-346.86 98.72,-346.86 92.72,-340.86 92.72,-334.86 92.72,-334.86 92.72,-244.91 92.72,-244.91 92.72,-238.91 98.72,-232.91 104.72,-232.91"/>
<text text-anchor="middle" x="181.22" y="-240.71" font-family="Times,serif" font-size="14.00">4</text>
</g>
<g id="clust2" class="cluster">
<title>cluster8</title>
<path fill="none" stroke="black" d="M49.72,-8C49.72,-8 133.72,-8 133.72,-8 139.72,-8 145.72,-14 145.72,-20 145.72,-20 145.72,-209.93 145.72,-209.93 145.72,-215.93 139.72,-221.93 133.72,-221.93 133.72,-221.93 49.72,-221.93 49.72,-221.93 43.72,-221.93 37.72,-215.93 37.72,-209.93 37.72,-209.93 37.72,-20 37.72,-20 37.72,-14 43.72,-8 49.72,-8"/>
<text text-anchor="middle" x="134.22" y="-15.8" font-family="Times,serif" font-size="14.00">8</text>
</g>
<!-- a -->
<g id="node1" class="node">
<title>a</title>
<ellipse fill="none" stroke="black" cx="41.72" cy="-301.38" rx="41.94" ry="37.45"/>
<text text-anchor="middle" x="41.72" y="-312.68" font-family="Times,serif" font-size="14.00">a</text>
<text text-anchor="middle" x="41.72" y="-297.68" font-family="Times,serif" font-size="14.00">~</text>
<text text-anchor="middle" x="41.72" y="-282.68" font-family="Times,serif" font-size="14.00">Normal</text>
</g>
<!-- μ -->
<g id="node5" class="node">
<title>μ</title>
<polygon fill="none" stroke="black" points="137.22,-213.93 46.22,-213.93 46.22,-160.93 137.22,-160.93 137.22,-213.93"/>
<text text-anchor="middle" x="91.72" y="-198.73" font-family="Times,serif" font-size="14.00">μ</text>
<text text-anchor="middle" x="91.72" y="-183.73" font-family="Times,serif" font-size="14.00">~</text>
<text text-anchor="middle" x="91.72" y="-168.73" font-family="Times,serif" font-size="14.00">Deterministic</text>
</g>
<!-- a&#45;&gt;μ -->
<g id="edge1" class="edge">
<title>a&#45;&gt;μ</title>
<path fill="none" stroke="black" d="M56.99,-266.19C62.88,-252.99 69.63,-237.89 75.6,-224.52"/>
<polygon fill="black" stroke="black" points="78.69,-226.19 79.57,-215.63 72.3,-223.33 78.69,-226.19"/>
</g>
<!-- σ -->
<g id="node2" class="node">
<title>σ</title>
<ellipse fill="none" stroke="black" cx="213.72" cy="-187.43" rx="58.88" ry="37.45"/>
<text text-anchor="middle" x="213.72" y="-198.73" font-family="Times,serif" font-size="14.00">σ</text>
<text text-anchor="middle" x="213.72" y="-183.73" font-family="Times,serif" font-size="14.00">~</text>
<text text-anchor="middle" x="213.72" y="-168.73" font-family="Times,serif" font-size="14.00">HalfNormal</text>
</g>
<!-- S -->
<g id="node4" class="node">
<title>S</title>
<ellipse fill="lightgrey" stroke="black" cx="93.72" cy="-76.48" rx="41.94" ry="37.45"/>
<text text-anchor="middle" x="93.72" y="-87.78" font-family="Times,serif" font-size="14.00">S</text>
<text text-anchor="middle" x="93.72" y="-72.78" font-family="Times,serif" font-size="14.00">~</text>
<text text-anchor="middle" x="93.72" y="-57.78" font-family="Times,serif" font-size="14.00">Normal</text>
</g>
<!-- σ&#45;&gt;S -->
<g id="edge4" class="edge">
<title>σ&#45;&gt;S</title>
<path fill="none" stroke="black" d="M180.29,-156.08C165.08,-142.27 147.01,-125.86 131.32,-111.62"/>
<polygon fill="black" stroke="black" points="133.76,-109.11 124.01,-104.98 129.06,-114.29 133.76,-109.11"/>
</g>
<!-- w -->
<g id="node3" class="node">
<title>w</title>
<ellipse fill="none" stroke="black" cx="142.72" cy="-301.38" rx="41.94" ry="37.45"/>
<text text-anchor="middle" x="142.72" y="-312.68" font-family="Times,serif" font-size="14.00">w</text>
<text text-anchor="middle" x="142.72" y="-297.68" font-family="Times,serif" font-size="14.00">~</text>
<text text-anchor="middle" x="142.72" y="-282.68" font-family="Times,serif" font-size="14.00">Normal</text>
</g>
<!-- w&#45;&gt;μ -->
<g id="edge2" class="edge">
<title>w&#45;&gt;μ</title>
<path fill="none" stroke="black" d="M127.14,-266.19C121.13,-252.99 114.25,-237.89 108.16,-224.52"/>
<polygon fill="black" stroke="black" points="111.44,-223.27 104.11,-215.62 105.07,-226.17 111.44,-223.27"/>
</g>
<!-- μ&#45;&gt;S -->
<g id="edge3" class="edge">
<title>μ&#45;&gt;S</title>
<path fill="none" stroke="black" d="M92.19,-160.61C92.39,-150.12 92.61,-137.64 92.84,-125.59"/>
<polygon fill="black" stroke="black" points="96.33,-125.82 93.02,-115.76 89.33,-125.69 96.33,-125.82"/>
</g>
</g>
</svg>
